# File created by Blade
# Date/Time:  Tue Apr 07 20:22:24 2015
#---------------------------------------------------------
:version 1.10
:name HOM
:units
  mass 1.0
  length 1.000000
  angle deg
:documentation
     Acclaim Skeleton File
:root
   axis xyz
   order TX TY TZ RX RY RZ
   position 0.000000 0.000000 0.000000
   orientation 0 0 0
:bonedata
   begin
      id 1
      name Spine_dum
      direction 0.000000 1.000000 0.000000
      length 4.885285
      axis 0.0 0.0 0.0 xyz
   end
   begin
      id 2
      name LeftUpLeg_dum
      direction 1.000000 0.000000 0.000000
      length 2.672193
      axis 0.0 0.0 0.0 xyz
   end
   begin
      id 3
      name RightUpLeg_dum
      direction -1.000000 0.000000 0.000000
      length 2.672193
      axis 0.0 0.0 0.0 xyz
   end
   begin
      id 4
      name Spine
      direction 0.000000 1.000000 0.000000
      length 0.000000
      axis 0.0 0.0 0.0 xyz
      dof rx ry rz
   end
   begin
      id 5
      name Spine_dum1
      direction 0.000000 1.000000 0.000000
      length 16.494159
      axis 0.0 0.0 0.0 xyz
   end
   begin
      id 6
      name Spine_dum2
      direction 0.000000 1.000000 0.000000
      length 10.663448
      axis 0.0 0.0 0.0 xyz
   end
   begin
      id 7
      name Spine_dum3
      direction 0.000000 1.000000 0.000000
      length 10.663448
      axis 0.0 0.0 0.0 xyz
   end
   begin
      id 8
      name Head
      direction 0.000000 1.000000 0.000000
      length 4.527550
      axis 0.0 0.0 0.0 xyz
      dof rx ry rz
   end
   begin
      id 9
      name LeftShoulder
      direction 1.000000 0.000000 0.000000
      length 7.531907
      axis 0.0 0.0 -90.0 xyz
      dof rx ry rz
   end
   begin
      id 10
      name LeftArm
      direction 1.000000 0.000000 0.000000
      length 10.229199
      axis 0.0 0.0 -90.0 xyz
      dof rx ry rz
   end
   begin
      id 11
      name LeftForeArm
      direction 1.000000 0.000000 0.000000
      length 8.673495
      axis 0.0 0.0 -90.0 xyz
      dof ry rz rx
   end
   begin
      id 12
      name LeftHand
      direction 0.000000 0.000000 0.000000
      length 0.000000
      axis 0.0 0.0 -90.0 xyz
      dof rx ry rz
   end
   begin
      id 13
      name LeftHand_dum1
      direction 0.000000 0.000000 0.000000
      length 0.000000
      axis 0.0 0.0 -90.0 xyz
   end
   begin
      id 14
      name LeftHand_dum2
      direction 1.000000 0.000000 0.000000
      length 3.937000
      axis 0.0 0.0 -90.0 xyz
   end
   begin
      id 15
      name LeftHandThumb1
      direction 0.000000 0.000000 1.000000
      length 3.937000
      axis 0.0 0.0 -90.0 xyz
      dof rx rz ry
   end
   begin
      id 16
      name RightShoulder
      direction -1.000000 0.000000 0.000000
      length 7.531907
      axis 0.0 0.0 90.0 xyz
      dof rx ry rz
   end
   begin
      id 17
      name RightArm
      direction -1.000000 0.000000 0.000000
      length 10.229199
      axis 0.0 0.0 90.0 xyz
      dof rx ry rz
   end
   begin
      id 18
      name RightForeArm
      direction -1.000000 0.000000 0.000000
      length 8.673495
      axis 0.0 0.0 90.0 xyz
      dof ry rz rx
   end
   begin
      id 19
      name RightHand
      direction 0.000000 0.000000 0.000000
      length 0.000000
      axis 0.0 0.0 90.0 xyz
      dof rx ry rz
   end
   begin
      id 20
      name RightHand_dum1
      direction 0.000000 0.000000 0.000000
      length 0.000000
      axis 0.0 0.0 90.0 xyz
   end
   begin
      id 21
      name RightHand_dum2
      direction -1.000000 0.000000 0.000000
      length 3.937000
      axis 0.0 0.0 90.0 xyz
   end
   begin
      id 22
      name RightHandThumb1
      direction 0.000000 0.000000 1.000000
      length 3.937000
      axis 0.0 0.0 90.0 xyz
      dof rx rz ry
   end
   begin
      id 23
      name LeftUpLeg
      direction 0.000000 -1.000000 0.000000
      length 16.263388
      axis 0.0 0.0 0.0 xyz
      dof rx ry rz
   end
   begin
      id 24
      name LeftLeg
      direction 0.000000 -1.000000 0.000000
      length 14.328163
      axis 0.0 0.0 0.0 xyz
      dof rx ry rz
   end
   begin
      id 25
      name LeftFoot
      direction 0.000000 -0.258819 0.965926
      length 5.031290
      axis 15.0 0.0 0.0 xyz
      dof rx ry rz
   end
   begin
      id 26
      name LeftToeBase
      direction 0.000000 0.000000 1.000000
      length 2.952750
      axis 0.0 0.0 0.0 xyz
      dof rx ry rz
   end
   begin
      id 27
      name RightUpLeg
      direction 0.000000 -1.000000 0.000000
      length 16.263388
      axis 0.0 0.0 0.0 xyz
      dof rx ry rz
   end
   begin
      id 28
      name RightLeg
      direction 0.000000 -1.000000 0.000000
      length 14.328163
      axis 0.0 0.0 0.0 xyz
      dof rx ry rz
   end
   begin
      id 29
      name RightFoot
      direction 0.000000 -0.258819 0.965926
      length 5.031290
      axis 15.0 0.0 0.0 xyz
      dof rx ry rz
   end
   begin
      id 30
      name RightToeBase
      direction 0.000000 0.000000 1.000000
      length 2.952750
      axis 0.0 0.0 0.0 xyz
      dof rx ry rz
   end
:hierarchy
   begin
      root Spine_dum LeftUpLeg_dum RightUpLeg_dum
      Spine_dum Spine
      LeftUpLeg_dum LeftUpLeg
      RightUpLeg_dum RightUpLeg
      Spine Spine_dum1 Spine_dum2 Spine_dum3
      Spine_dum1 Head
      Spine_dum2 LeftShoulder
      Spine_dum3 RightShoulder
      LeftShoulder LeftArm
      LeftArm LeftForeArm
      LeftForeArm LeftHand
      LeftHand LeftHand_dum1 LeftHand_dum2
      LeftHand_dum1 LeftHandThumb1
      RightShoulder RightArm
      RightArm RightForeArm
      RightForeArm RightHand
      RightHand RightHand_dum1 RightHand_dum2
      RightHand_dum1 RightHandThumb1
      LeftUpLeg LeftLeg
      LeftLeg LeftFoot
      LeftFoot LeftToeBase
      RightUpLeg RightLeg
      RightLeg RightFoot
      RightFoot RightToeBase
   end

# File created by Blade
# Date/Time:  Tue Apr 07 20:22:14 2015
# Frame Rate: 120.000 fps
#------------------------------------------------------
:FULLY-SPECIFIED
:DEGREES
311
root 5.257864 33.890636 -10.743060 19.731453 -28.560702 -34.101657
Spine 4.730545 18.716591 19.635025
Head -0.398397 -5.565258 10.608429
LeftShoulder -20.971535 43.003993 13.499128
LeftArm 53.337072 -35.421724 -86.940165
LeftForeArm -0.798492 -0.000000 14.952407
LeftHand 11.244914 -0.000000 4.895866
LeftHandThumb1 -26.253704 0.000000 33.147579
RightShoulder 5.431072 10.156751 -14.992928
RightArm 27.532983 -5.959246 82.369150
RightForeArm 2.958973 -0.000000 10.432580
RightHand 6.550597 -0.000000 2.344207
RightHandThumb1 -24.326973 -0.000000 -32.862282
LeftUpLeg -7.172719 6.829243 24.638236
LeftLeg 10.828133 -0.000000 -0.000000
LeftFoot -8.549216 29.634611 -1.776578
LeftToeBase -8.129003 -0.000000 0.000000
RightUpLeg -103.392894 -41.867317 9.490872
RightLeg 119.190076 -0.000000 -0.000000
RightFoot 30.069727 -7.787839 3.571936
RightToeBase 29.902324 -0.000000 -0.000000
312
root 5.253982 33.892093 -10.755750 19.756521 -28.751562 -34.362014
Spine 5.100887 18.839725 19.963214
Head -0.583529 -5.371290 10.429220
LeftShoulder -21.039427 43.050539 13.499162
LeftArm 53.394439 -35.859697 -86.743168
LeftForeArm -1.038709 -0.000000 14.442351
LeftHand 11.242565 -0.000000 4.746890
LeftHandThumb1 -26.253704 0.000000 33.147579
RightShoulder 5.413414 10.284923 -15.101713
RightArm 27.594456 -5.816153 82.000035
RightForeArm 2.652487 -0.000000 9.866010
RightHand 6.656933 0.000000 1.798563
RightHandThumb1 -24.326973 -0.000000 -32.862282
LeftUpLeg -6.992710 6.467713 24.836854
LeftLeg 10.926628 -0.000000 -0.000000
LeftFoot -8.913888 30.122298 -1.783343
LeftToeBase -7.604721 -0.000000 0.000000
RightUpLeg -103.770306 -41.913292 9.553223
RightLeg 119.189907 -0.000000 -0.000000
RightFoot 30.250792 -7.718472 3.413963
RightToeBase 29.876132 -0.000000 -0.000000
313
root 5.251807 33.888126 -10.768495 19.854701 -28.973886 -34.565700
Spine 5.332761 19.007478 20.173177
Head -0.690714 -5.152349 10.295596
LeftShoulder -21.053909 43.084729 13.590003
LeftArm 53.389272 -36.359362 -86.577610
LeftForeArm -1.320184 -0.000000 13.956637
LeftHand 11.254843 -0.000000 4.525802
LeftHandThumb1 -26.253704 0.000000 33.147579
RightShoulder 5.446257 10.436609 -15.175191
RightArm 27.566800 -5.509253 81.682987
RightForeArm 2.352472 -0.000000 9.242485
RightHand 6.635615 -0.000000 1.500057
RightHandThumb1 -24.326973 -0.000000 -32.862282
LeftUpLeg -6.890024 6.097927 24.967658
LeftLeg 11.057893 -0.000000 -0.000000
LeftFoot -9.489555 30.514738 -2.055841
LeftToeBase -6.997099 -0.000000 0.000000
RightUpLeg -104.297788 -41.927892 9.692435
RightLeg 119.168727 -0.000000 -0.000000
RightFoot 30.469765 -7.773284 3.447767
RightToeBase 29.884100 -0.000000 -0.000000
314
root 5.249182 33.880527 -10.779729 19.966284 -29.203023 -34.781497
Spine 5.564673 19.174565 20.399146
Head -0.817620 -4.916879 10.133676
LeftShoulder -21.122309 43.164185 13.608378
LeftArm 53.411621 -36.876675 -86.382941
LeftForeArm -1.662070 -0.000000 13.475716
LeftHand 11.384477 -0.000000 4.205925
LeftHandThumb1 -26.253704 0.000000 33.147579
RightShoulder 5.509834 10.600127 -15.233831
RightArm 27.516263 -5.189822 81.321328
RightForeArm 1.897268 -0.000000 8.605043
RightHand 6.460017 -0.000000 1.406466
RightHandThumb1 -24.326973 -0.000000 -32.862282
LeftUpLeg -6.819396 5.564881 25.108581
LeftLeg 11.274331 -0.000000 -0.000000
LeftFoot -10.130459 31.045999 -2.452954
LeftToeBase -6.466747 -0.000000 0.000000
RightUpLeg -104.762843 -41.862415 9.776656
RightLeg 119.126765 -0.000000 -0.000000
RightFoot 30.726731 -7.873622 3.515557
RightToeBase 29.870712 -0.000000 -0.000000
315
root 5.248817 33.871299 -10.792111 20.082545 -29.413280 -35.043611
Spine 5.828359 19.341298 20.695668
Head -0.939437 -4.730396 9.965637
LeftShoulder -21.145588 43.181558 13.668550
LeftArm 53.386356 -37.428728 -86.219602
LeftForeArm -2.053988 -0.000000 12.989853
LeftHand 11.536811 0.000000 4.119006
LeftHandThumb1 -26.253704 0.000000 33.147579
RightShoulder 5.568441 10.793872 -15.301616
RightArm 27.369537 -4.597933 81.025758
RightForeArm 0.412650 -0.000000 8.056006
RightHand 5.999175 -0.000000 2.030401
RightHandThumb1 -24.326973 -0.000000 -32.862282
LeftUpLeg -6.741080 5.119824 25.276584
LeftLeg 11.485433 -0.000000 -0.000000
LeftFoot -10.714506 31.416881 -2.740169
LeftToeBase -6.618277 -0.000000 0.000000
RightUpLeg -105.184991 -41.801514 9.947606
RightLeg 119.047245 -0.000000 -0.000000
RightFoot 30.951755 -7.834118 3.440136
RightToeBase 29.842220 -0.000000 -0.000000
316
root 5.249210 33.852306 -10.830867 20.492913 -29.832119 -35.112308
Spine 5.706396 19.791974 20.492202
Head -1.047727 -4.504215 10.027412
LeftShoulder -21.171297 43.197949 13.845236
LeftArm 53.354035 -38.032320 -85.989191
LeftForeArm -2.317259 0.000000 12.533772
LeftHand 11.471218 -0.000000 3.917882
LeftHandThumb1 -26.253704 0.000000 33.147579
RightShoulder 5.602649 10.962024 -15.285047
RightArm 27.289262 -4.233966 80.799753
RightForeArm 0.152748 -0.000000 7.358167
RightHand 5.692793 0.000000 1.917667
RightHandThumb1 -24.326973 -0.000000 -32.862282
LeftUpLeg -7.038483 4.907822 25.206677
LeftLeg 11.808244 -0.000000 -0.000000
LeftFoot -11.337701 31.712550 -3.100495
LeftToeBase -6.937673 -0.000000 0.000000
RightUpLeg -106.117094 -41.366191 10.192382
RightLeg 118.961000 -0.000000 -0.000000
RightFoot 31.104801 -7.893957 3.497136
RightToeBase 29.866617 -0.000000 -0.000000
317
root 5.256658 33.831048 -10.859508 20.764723 -30.216484 -35.143983
Spine 5.732644 20.163521 20.363202
Head -1.224023 -4.317099 10.001658
LeftShoulder -21.174894 43.172451 13.956777
LeftArm 53.241999 -38.638610 -85.684122
LeftForeArm -2.771427 -0.000000 12.090220
LeftHand 11.601312 -0.000000 4.043561
LeftHandThumb1 -26.253704 0.000000 33.147579
RightShoulder 5.650416 11.124037 -15.280131
RightArm 27.224374 -3.986226 80.446798
RightForeArm -0.341348 -0.000000 6.688227
RightHand 5.263845 -0.000000 1.612059
RightHandThumb1 -24.326973 -0.000000 -32.862282
LeftUpLeg -7.271408 4.379928 25.112969
LeftLeg 12.210261 -0.000000 -0.000000
LeftFoot -12.047613 31.984701 -3.656693
LeftToeBase -7.151143 -0.000000 0.000000
RightUpLeg -106.861422 -41.000665 10.333466
RightLeg 118.832747 -0.000000 -0.000000
RightFoot 31.235749 -7.838695 3.384822
RightToeBase 29.553921 -0.000000 -0.000000
318
root 5.277698 33.806768 -10.880657 20.906959 -30.547286 -35.013657
Spine 5.790588 20.376300 20.164839
Head -1.384647 -4.080877 9.895858
LeftShoulder -21.256894 43.198301 13.939718
LeftArm 53.252487 -39.324130 -85.547060
LeftForeArm -3.179980 -0.000000 11.730137
LeftHand 11.709503 -0.000000 4.185629
LeftHandThumb1 -26.253704 0.000000 33.147579
RightShoulder 5.777053 11.241399 -15.300245
RightArm 27.197635 -3.695728 80.106843
RightForeArm -0.946210 -0.000000 6.003463
RightHand 4.758020 -0.000000 1.912732
RightHandThumb1 -24.326973 -0.000000 -32.862282
LeftUpLeg -7.500081 3.666067 24.874761
LeftLeg 12.586328 -0.000000 -0.000000
LeftFoot -12.746381 32.228932 -4.159873
LeftToeBase -8.020070 -0.000000 0.000000
RightUpLeg -107.542417 -40.764575 10.372249
RightLeg 118.642739 -0.000000 -0.000000
RightFoot 31.342990 -7.758629 3.185233
RightToeBase 29.751078 -0.000000 -0.000000
319
root 5.301292 33.779332 -10.902789 21.021649 -30.879913 -34.766999
Spine 5.826733 20.599255 19.837688
Head -1.618362 -3.899223 9.813300
LeftShoulder -21.328706 43.212481 13.928426
LeftArm 53.230697 -40.006956 -85.377660
LeftForeArm -3.611517 -0.000000 11.471996
LeftHand 11.708161 -0.000000 4.325543
LeftHandThumb1 -26.253704 0.000000 33.147579
RightShoulder 5.830179 11.292332 -15.314498
RightArm 27.278815 -3.749665 79.660999
RightForeArm -1.275210 0.000000 5.327621
RightHand 4.118834 -0.000000 1.897134
RightHandThumb1 -24.326973 -0.000000 -32.862282
LeftUpLeg -7.769941 2.850630 24.558339
LeftLeg 12.965441 -0.000000 -0.000000
LeftFoot -13.592923 32.180246 -4.910178
LeftToeBase -8.401203 -0.000000 0.000000
RightUpLeg -108.239136 -40.512020 10.380131
RightLeg 118.436336 -0.000000 -0.000000
RightFoot 31.356363 -7.684226 2.877117
RightToeBase 29.662186 -0.000000 -0.000000
